HIERARCHY
ROOT Hips
{
    OFFSET   0.000000   0.000000   0.000000
    CHANNELS 6 Xposition Yposition Zposition Zrotation Xrotation Yrotation
    JOINT Chest
    {
        OFFSET   0.000000   8.007230   0.000000
        CHANNELS 3 Zrotation Xrotation Yrotation
        JOINT Chest2
        {
            OFFSET   0.000000  22.077100   0.000000
            CHANNELS 3 Zrotation Xrotation Yrotation
            JOINT Neck
            {
                OFFSET   0.000000  23.254800   0.000000
                CHANNELS 3 Zrotation Xrotation Yrotation
                JOINT Head
                {
                    OFFSET   0.000010  14.370000   1.956600
                    CHANNELS 3 Zrotation Xrotation Yrotation
                    End Site
                    {
                        OFFSET   0.000000  19.566000   0.000000
                    }
                }
            }
            JOINT LeftCollar
            {
                OFFSET   3.911900  19.017000  -0.467062
                CHANNELS 3 Zrotation Xrotation Yrotation
                JOINT LeftShoulder
                {
                    OFFSET  10.383700   0.000000   0.000000
                    CHANNELS 3 Zrotation Xrotation Yrotation
                    JOINT LeftElbow
                    {
                        OFFSET  26.662100   0.001193   0.000835
                        CHANNELS 3 Zrotation Xrotation Yrotation
                        JOINT LeftWrist
                        {
                            OFFSET  28.869000  -0.000058  -0.000075
                            CHANNELS 3 Zrotation Xrotation Yrotation
                            JOINT LeftFinger0
                            {
                                OFFSET   2.044660  -2.323460   3.252850
                                CHANNELS 3 Zrotation Xrotation Yrotation
                                JOINT LeftFinger01
                                {
                                    OFFSET   3.088130   0.000000   0.000000
                                    CHANNELS 3 Zrotation Xrotation Yrotation
                                    JOINT LeftFinger02
                                    {
                                        OFFSET   2.639450   0.000000   0.000000
                                        CHANNELS 3 Zrotation Xrotation Yrotation
                                        End Site
                                        {
                                            OFFSET   2.582190   0.000000   0.000000
                                        }
                                    }
                                }
                            }
                            JOINT LeftFinger1
                            {
                                OFFSET   8.364480   0.000000   3.252850
                                CHANNELS 3 Zrotation Xrotation Yrotation
                                JOINT LeftFinger11
                                {
                                    OFFSET   4.646920   0.000000   0.000000
                                    CHANNELS 3 Zrotation Xrotation Yrotation
                                    JOINT LeftFinger12
                                    {
                                        OFFSET   2.323460   0.000000   0.000000
                                        CHANNELS 3 Zrotation Xrotation Yrotation
                                        End Site
                                        {
                                            OFFSET   2.273050   0.000000   0.000000
                                        }
                                    }
                                }
                            }
                            JOINT LeftFinger2
                            {
                                OFFSET   8.364490   0.000016   1.078090
                                CHANNELS 3 Zrotation Xrotation Yrotation
                                JOINT LeftFinger21
                                {
                                    OFFSET   5.111620   0.000000   0.000000
                                    CHANNELS 3 Zrotation Xrotation Yrotation
                                    JOINT LeftFinger22
                                    {
                                        OFFSET   2.788150   0.000012   0.000000
                                        CHANNELS 3 Zrotation Xrotation Yrotation
                                        End Site
                                        {
                                            OFFSET   2.727660   0.000000   0.000000
                                        }
                                    }
                                }
                            }
                            JOINT LeftFinger3
                            {
                                OFFSET   7.899780   0.000014  -1.078090
                                CHANNELS 3 Zrotation Xrotation Yrotation
                                JOINT LeftFinger31
                                {
                                    OFFSET   4.646930   0.000000   0.000000
                                    CHANNELS 3 Zrotation Xrotation Yrotation
                                    JOINT LeftFinger32
                                    {
                                        OFFSET   2.323470   0.000000   0.000000
                                        CHANNELS 3 Zrotation Xrotation Yrotation
                                        End Site
                                        {
                                            OFFSET   2.273050   0.000000   0.000000
                                        }
                                    }
                                }
                            }
                            JOINT LeftFinger4
                            {
                                OFFSET   7.435090   0.000000  -3.252850
                                CHANNELS 3 Zrotation Xrotation Yrotation
                                JOINT LeftFinger41
                                {
                                    OFFSET   3.717550   0.000000   0.000000
                                    CHANNELS 3 Zrotation Xrotation Yrotation
                                    JOINT LeftFinger42
                                    {
                                        OFFSET   1.858770   0.000000   0.000000
                                        CHANNELS 3 Zrotation Xrotation Yrotation
                                        End Site
                                        {
                                            OFFSET   1.818440   0.000000   0.000000
                                        }
                                    }
                                }
                            }
                        }
                    }
                }
            }
            JOINT RightCollar
            {
                OFFSET  -3.911900  19.017000  -0.467063
                CHANNELS 3 Zrotation Xrotation Yrotation
                JOINT RightShoulder
                {
                    OFFSET -10.383700   0.000023   0.000000
                    CHANNELS 3 Zrotation Xrotation Yrotation
                    JOINT RightElbow
                    {
                        OFFSET -26.662100   0.001246   0.001011
                        CHANNELS 3 Zrotation Xrotation Yrotation
                        JOINT RightWrist
                        {
                            OFFSET -28.869000  -0.000026  -0.000078
                            CHANNELS 3 Zrotation Xrotation Yrotation
                            JOINT RightFinger0
                            {
                                OFFSET  -2.044660  -2.323490   3.252850
                                CHANNELS 3 Zrotation Xrotation Yrotation
                                JOINT RightFinger01
                                {
                                    OFFSET  -3.088130   0.000000   0.000000
                                    CHANNELS 3 Zrotation Xrotation Yrotation
                                    JOINT RightFinger02
                                    {
                                        OFFSET  -2.639460   0.000000   0.000000
                                        CHANNELS 3 Zrotation Xrotation Yrotation
                                        End Site
                                        {
                                            OFFSET  -2.582190   0.000000   0.000000
                                        }
                                    }
                                }
                            }
                            JOINT RightFinger1
                            {
                                OFFSET  -8.364480   0.000000   3.252850
                                CHANNELS 3 Zrotation Xrotation Yrotation
                                JOINT RightFinger11
                                {
                                    OFFSET  -4.646920   0.000000   0.000000
                                    CHANNELS 3 Zrotation Xrotation Yrotation
                                    JOINT RightFinger12
                                    {
                                        OFFSET  -2.323470   0.000000   0.000000
                                        CHANNELS 3 Zrotation Xrotation Yrotation
                                        End Site
                                        {
                                            OFFSET  -2.273050   0.000000   0.000000
                                        }
                                    }
                                }
                            }
                            JOINT RightFinger2
                            {
                                OFFSET  -8.364480   0.000000   1.078090
                                CHANNELS 3 Zrotation Xrotation Yrotation
                                JOINT RightFinger21
                                {
                                    OFFSET  -5.111620   0.000000   0.000000
                                    CHANNELS 3 Zrotation Xrotation Yrotation
                                    JOINT RightFinger22
                                    {
                                        OFFSET  -2.788160   0.000000   0.000000
                                        CHANNELS 3 Zrotation Xrotation Yrotation
                                        End Site
                                        {
                                            OFFSET  -2.727660   0.000000   0.000000
                                        }
                                    }
                                }
                            }
                            JOINT RightFinger3
                            {
                                OFFSET  -7.899780   0.000000  -1.078090
                                CHANNELS 3 Zrotation Xrotation Yrotation
                                JOINT RightFinger31
                                {
                                    OFFSET  -4.646930   0.000000   0.000000
                                    CHANNELS 3 Zrotation Xrotation Yrotation
                                    JOINT RightFinger32
                                    {
                                        OFFSET  -2.323470   0.000000   0.000000
                                        CHANNELS 3 Zrotation Xrotation Yrotation
                                        End Site
                                        {
                                            OFFSET  -2.273050   0.000000   0.000000
                                        }
                                    }
                                }
                            }
                            JOINT RightFinger4
                            {
                                OFFSET  -7.435090   0.000000  -3.252850
                                CHANNELS 3 Zrotation Xrotation Yrotation
                                JOINT RightFinger41
                                {
                                    OFFSET  -3.717550   0.000000   0.000000
                                    CHANNELS 3 Zrotation Xrotation Yrotation
                                    JOINT RightFinger42
                                    {
                                        OFFSET  -1.858760   0.000000   0.000000
                                        CHANNELS 3 Zrotation Xrotation Yrotation
                                        End Site
                                        {
                                            OFFSET  -1.818440   0.000000   0.000000
                                        }
                                    }
                                }
                            }
                        }
                    }
                }
            }
        }
    }
    JOINT LeftHip
    {
        OFFSET   9.783010   0.000000   0.000000
        CHANNELS 3 Zrotation Xrotation Yrotation
        JOINT LeftKnee
        {
            OFFSET   0.000073 -41.789100   0.001749
            CHANNELS 3 Zrotation Xrotation Yrotation
            JOINT LeftAnkle
            {
                OFFSET   0.000111 -41.133200  -0.000179
                CHANNELS 3 Zrotation Xrotation Yrotation
                JOINT LeftToe
                {
                    OFFSET   0.000000  -6.358960  14.674500
                    CHANNELS 3 Zrotation Xrotation Yrotation
                    End Site
                    {
                        OFFSET   0.000000   0.000000   3.913200
                    }
                }
            }
        }
    }
    JOINT RightHip
    {
        OFFSET  -9.783010   0.000000   0.000000
        CHANNELS 3 Zrotation Xrotation Yrotation
        JOINT RightKnee
        {
            OFFSET   0.000424 -41.789200   0.005205
            CHANNELS 3 Zrotation Xrotation Yrotation
            JOINT RightAnkle
            {
                OFFSET   0.000000 -41.133200  -0.000155
                CHANNELS 3 Zrotation Xrotation Yrotation
                JOINT RightToe
                {
                    OFFSET   0.000000  -6.358960  14.674500
                    CHANNELS 3 Zrotation Xrotation Yrotation
                    End Site
                    {
                        OFFSET   0.000000   0.000000   3.913200
                    }
                }
            }
        }
    }
}
MOTION
Frames: 5
Frame Time:   0.016667
  0.139684  89.568200  -0.380859  -2.720190  -7.546310  -2.251290   0.730643   4.147250   0.802974   1.408340   8.304030   1.558860  -0.720618  -0.002363  -0.010474  -1.183880   0.002430   0.055679  -3.911560  -0.559938   1.606440 -76.150000  14.815400  -0.325214  -0.962185  -5.071600 -16.327600  12.674000  -3.840360   0.730419  39.923100  35.935500 -61.060100 -34.439500   0.000000   0.000142 -12.218200  -0.007759  -0.002073 -32.910600   5.384160  -8.249570 -27.244800  -0.002590  -0.004803 -19.071300   0.003272  -0.004093 -28.593200  -2.022400   3.690230 -38.282500  -0.002626  -0.004156 -25.496200  -0.004474  -0.001955 -28.512700  -2.016700   3.693340 -36.984100  -0.004714  -0.005243 -24.631400  -0.008682  -0.004381 -33.553000  -2.326290   3.502240 -50.436200  -0.011563  -0.004104 -33.590500   0.002891  -0.004096   8.029880   0.522157   5.576610  71.407000   4.476850  -9.751570  -3.292310  -4.068510  17.533900 -12.248200  -6.822250   2.430380 -35.813700  30.711500  59.440700  36.014800  -0.001697   0.001287  13.007400  -0.000435   0.001506  36.349200   9.714860  12.912800  30.645800   0.001286   0.000691  21.440900  -0.001194   0.000673  37.836800   1.010160   1.300260  54.186600   0.012558   0.002232  36.589700   0.001557   0.010093  44.292700   1.149960   1.178450  54.456400   0.000539  -0.002655  38.482600   0.003044   0.005171  51.350700  -5.060330  -4.041300  77.294300   0.004175   0.003087  51.478000   0.005544  -0.002213   2.578300  10.353100   3.836910   1.294040   0.093478   3.246940  -1.416730  -3.492080   1.069790  -0.000000   0.000000   0.000000   3.078320   8.475020  -0.628181  -0.237497   2.083880  -4.900870  -1.015410  -4.068710  -0.867684   0.000000   0.000000   0.000000
  0.145166  89.568200  -0.387005  -2.718800  -7.557390  -2.237040   0.730531   4.152780   0.802930   1.408060   8.315100   1.558720  -0.726274  -0.002341  -0.010459  -1.193180   0.002535   0.063456  -3.911620  -0.559928   1.600890 -76.150600  14.815200  -0.323857  -0.961702  -5.071740 -16.322100  12.689300  -3.850560   0.742148  39.914600  35.922200 -61.070000 -34.442000   0.000000   0.000146 -12.217700  -0.007752  -0.002072 -32.923000   5.391490  -8.256680 -27.257500  -0.002584  -0.004798 -19.080200   0.003277  -0.004088 -28.593800  -2.015660   3.683860 -38.315100  -0.002626  -0.004156 -25.517900  -0.004477  -0.001953 -28.513400  -2.009990   3.686960 -37.015000  -0.004708  -0.005238 -24.652000  -0.008683  -0.004377 -33.567100  -2.323120   3.495740 -50.457100  -0.011560  -0.004102 -33.604400   0.002886  -0.004089   8.033330   0.522169   5.570580  71.420100   4.483800  -9.767340  -3.283970  -4.056950  17.526600 -12.254700  -6.806290   2.432380 -35.821500  30.710000  59.448700  36.008100  -0.001701   0.001293  13.004100  -0.000432   0.001503  36.344600   9.723790  12.927700  30.640800   0.001281   0.000693  21.440600  -0.001190   0.000673  37.824700   1.021000   1.314780  54.186600   0.012559   0.002232  36.589400   0.001556   0.010094  44.278000   1.162290   1.191720  54.456400   0.000537  -0.002658  38.482300   0.003046   0.005171  51.342800  -5.060140  -4.041210  77.282500   0.004166   0.003076  51.470200   0.005537  -0.002212   2.576420  10.383600   3.837750   1.291270   0.047221   3.246540  -1.412050  -3.459050   1.061790  -0.000000   0.000000   0.000000   3.073010   8.486630  -0.623140  -0.237431   2.077810  -4.913750  -1.011720  -4.064440  -0.873808   0.000000   0.000000   0.000000
  0.154688  89.568200  -0.397307  -2.716780  -7.575330  -2.216130   0.730354   4.161910   0.802844   1.407610   8.333350   1.558480  -0.740900  -0.002191  -0.010432  -1.217220   0.002828   0.079615  -3.911720  -0.559918   1.592480 -76.151600  14.815100  -0.320433  -0.960679  -5.072050 -16.310400  12.704900  -3.860750   0.757995  39.893400  35.904600 -61.084900 -34.446100   0.000000   0.000156 -12.217300  -0.007745  -0.002067 -32.939500   5.402260  -8.267780 -27.270200  -0.002568  -0.004783 -19.089200   0.003281  -0.004076 -28.594800  -2.005810   3.673530 -38.347800  -0.002625  -0.004155 -25.539600  -0.004486  -0.001949 -28.514400  -2.000180   3.676600 -37.045900  -0.004695  -0.005225 -24.672600  -0.008688  -0.004367 -33.581500  -2.317580   3.485420 -50.478000  -0.011550  -0.004097 -33.618300   0.002873  -0.004070   8.039380   0.522223   5.561970  71.441800   4.495730  -9.789760  -3.276860  -4.042250  17.516100 -12.264300  -6.781550   2.442460 -35.830600  30.706500  59.459300  35.995200  -0.001705   0.001304  12.997600  -0.000428   0.001500  36.334700   9.743470  12.958000  30.635900   0.001272   0.000701  21.440200  -0.001187   0.000679  37.812200   1.040970   1.341100  54.186500   0.012560   0.002229  36.589100   0.001552   0.010096  44.262900   1.185050   1.215670  54.456400   0.000533  -0.002664  38.482000   0.003049   0.005170  51.334800  -5.059880  -4.041030  77.270800   0.004140   0.003046  51.462400   0.005519  -0.002211   2.574540  10.414100   3.838580   1.288080   0.000964   3.243760  -1.406490  -3.426010   1.050510  -0.000000   0.000000   0.000000   3.063990   8.504610  -0.614976  -0.237366   2.068460  -4.933390  -1.005300  -4.057250  -0.882618   0.000000   0.000000  -0.000000
  0.163159  89.568200  -0.405666  -2.715700  -7.588010  -2.205100   0.730237   4.168460   0.802774   1.407300   8.346420   1.558280  -0.762523  -0.000635  -0.010406  -1.252740   0.003470   0.099490  -3.911810  -0.559979   1.587800 -76.153100  14.815500  -0.314412  -0.963526  -5.076520 -16.294900  12.697600  -3.853000   0.762792  39.893000  35.915800 -61.114900 -34.448900   0.000000   0.000175 -12.220700  -0.007757  -0.002057 -32.943700   5.408650  -8.276650 -27.269700  -0.002542  -0.004761 -19.088800   0.003280  -0.004058 -28.595400  -2.000160   3.664020 -38.347600  -0.002623  -0.004155 -25.539500  -0.004499  -0.001941 -28.515200  -1.994540   3.667080 -37.045700  -0.004675  -0.005206 -24.672500  -0.008699  -0.004350 -33.577600  -2.311230   3.476630 -50.471500  -0.011534  -0.004087 -33.614000   0.002851  -0.004042   8.046080   0.524453   5.558500  71.459300   4.505370  -9.800510  -3.282270  -4.039620  17.510700 -12.268500  -6.762500   2.463860 -35.836800  30.702800  59.464200  35.976800  -0.001697   0.001318  12.988400  -0.000424   0.001508  36.325500   9.772670  13.000400  30.636200   0.001264   0.000713  21.441900  -0.001189   0.000692  37.816400   1.066680   1.373810  54.186500   0.012561   0.002223  36.590700   0.001545   0.010096  44.271000   1.214410   1.245140  54.456300   0.000527  -0.002673  38.483600   0.003055   0.005171  51.336000  -5.059760  -4.040800  77.272500   0.004100   0.003000  51.463600   0.005490  -0.002209   2.576280  10.375700   3.838010   1.282740   0.090345   3.234690  -1.405420  -3.462080   1.045430  -0.000000   0.000000   0.000000   3.056170   8.515520  -0.607518  -0.237406   2.062450  -4.945380  -0.999647  -4.051310  -0.887242  -0.000000   0.000000   0.000000
  0.172005  89.568100  -0.414097  -2.715010  -7.601260  -2.197980   0.730127   4.176030   0.802650   1.406980   8.361560   1.557960  -0.792383   0.000792  -0.010372  -1.301790   0.003925   0.122741  -3.911890  -0.560066   1.583510 -76.154200  14.818600  -0.308690  -0.972150  -5.088140 -16.277900  12.684900  -3.834220   0.763461  39.906500  35.939200 -61.150200 -34.452900   0.000000   0.000196 -12.226500  -0.007778  -0.002040 -32.943700   5.411610  -8.281520 -27.268500  -0.002504  -0.004731 -19.088000   0.003279  -0.004034 -28.595700  -1.997600   3.658480 -38.346700  -0.002621  -0.004154 -25.538900  -0.004516  -0.001930 -28.515600  -1.991990   3.661530 -37.044200  -0.004649  -0.005181 -24.671400  -0.008714  -0.004327 -33.568500  -2.307260   3.471660 -50.457700  -0.011513  -0.004074 -33.604800   0.002821  -0.004004   8.050090   0.527958   5.556040  71.476000   4.516760  -9.804720  -3.292370  -4.038150  17.508500 -12.273000  -6.752120   2.494960 -35.843000  30.700800  59.466300  35.964600  -0.001690   0.001327  12.982300  -0.000420   0.001516  36.324400   9.800890  13.035800  30.638400   0.001253   0.000732  21.446900  -0.001192   0.000710  37.829000   1.083250   1.394710  54.186400   0.012561   0.002215  36.594700   0.001537   0.010096  44.291800   1.233350   1.263930  54.456200   0.000520  -0.002685  38.488100   0.003063   0.005172  51.340500  -5.059730  -4.040660  77.279200   0.004048   0.002941  51.468000   0.005454  -0.002207   2.576860  10.337300   3.836890   1.277420   0.179727   3.228000  -1.404170  -3.498140   1.043620  -0.000000   0.000000   0.000000   3.048740   8.526050  -0.603192  -0.237470   2.057620  -4.955010  -0.993640  -4.045400  -0.889176   0.000000   0.000000  -0.000000
